<svg width="40" height="40" viewBox="0 0 40 40" fill="none" xmlns="http://www.w3.org/2000/svg">
<path fill-rule="evenodd" clip-rule="evenodd" d="M20.5597 2.21522C20.2078 2.03926 19.7935 2.03926 19.4416 2.21522L2.77497 10.5486C2.35149 10.7603 2.08398 11.1931 2.08398 11.6666V16.2499H37.9173V11.6666C37.9173 11.1931 37.6498 10.7603 37.2263 10.5486L20.5597 2.21522ZM21.6673 9.99992H18.334V13.3333H21.6673V9.99992Z" fill="#111827"/>
<path d="M2.08476 32.5C2.08476 31.8096 2.64441 31.25 3.33476 31.25H36.6681C36.9996 31.25 37.3176 31.3817 37.552 31.6162C37.7864 31.8506 37.9181 32.1686 37.9181 32.5001L37.9176 36.6668C37.9175 37.3571 37.3579 37.9167 36.6676 37.9167H3.33476C2.64441 37.9167 2.08476 37.357 2.08476 36.6667V32.5Z" fill="#111827"/>
<path d="M34.5846 18.75H25.418V28.75H34.5846V18.75Z" fill="#111827"/>
<path d="M14.5846 18.75H5.41797V28.75H14.5846V18.75Z" fill="#111827"/>
</svg>
