<svg width="40" height="40" viewBox="0 0 40 40" fill="none" xmlns="http://www.w3.org/2000/svg">
<path fill-rule="evenodd" clip-rule="evenodd" d="M12.5 4.58329C12.5 3.66282 13.2462 2.91663 14.1667 2.91663H25.8333C26.7538 2.91663 27.5 3.66282 27.5 4.58329V10.4166H24.1667V6.24996H15.8333V10.4166H12.5V4.58329Z" fill="#111827"/>
<path fill-rule="evenodd" clip-rule="evenodd" d="M2.91666 10C2.91666 9.30964 3.4763 8.75 4.16666 8.75H35.8333C36.5237 8.75 37.0833 9.30964 37.0833 10V18.75L30 18.75V21.25L37.0833 21.25V35.8333C37.0833 36.5237 36.5237 37.0833 35.8333 37.0833H4.16666C3.4763 37.0833 2.91666 36.5237 2.91666 35.8333V21.25H9.99999V18.75H2.91666V10ZM16.893 18.0656C17.4238 17.6675 18.0597 17.3801 18.75 17.2226V15.8333H21.25V17.2242C22.5644 17.5253 23.7246 18.3004 24.2744 19.4671L22.0129 20.5329C21.8175 20.1183 21.114 19.5833 20 19.5833C19.3238 19.5833 18.7598 19.7905 18.393 20.0656C18.0265 20.3404 17.9167 20.6246 17.9167 20.8333C17.9167 21.042 18.0265 21.3263 18.393 21.6011C18.7598 21.8762 19.3238 22.0833 20 22.0833C21.1648 22.0833 22.2674 22.4359 23.107 23.0656C23.947 23.6956 24.5833 24.6613 24.5833 25.8333C24.5833 27.0053 23.947 27.9711 23.107 28.6011C22.5762 28.9992 21.9403 29.2865 21.25 29.444V30.8333H18.75V29.4425C17.4355 29.1414 16.2754 28.3662 15.7256 27.1995L17.9871 26.1338C18.1824 26.5484 18.886 27.0833 20 27.0833C20.6762 27.0833 21.2402 26.8762 21.607 26.6011C21.9734 26.3263 22.0833 26.042 22.0833 25.8333C22.0833 25.6246 21.9734 25.3404 21.607 25.0656C21.2402 24.7905 20.6762 24.5833 20 24.5833C18.8352 24.5833 17.7326 24.2308 16.893 23.6011C16.053 22.9711 15.4167 22.0053 15.4167 20.8333C15.4167 19.6613 16.053 18.6956 16.893 18.0656Z" fill="#111827"/>
</svg>
