<svg width="40" height="40" viewBox="0 0 40 40" fill="none" xmlns="http://www.w3.org/2000/svg">
<path fill-rule="evenodd" clip-rule="evenodd" d="M18.7298 2.13646C18.4109 2.04032 18.0669 2.07542 17.774 2.23397C17.481 2.39252 17.2635 2.66141 17.1697 2.98098L10.4678 25.7975C10.2742 26.4566 10.6486 27.1483 11.3063 27.3466L29.6044 32.8634C29.9233 32.9595 30.2674 32.9244 30.5603 32.7659C30.8532 32.6073 31.0707 32.3384 31.1646 32.0189L37.8664 9.20233C38.06 8.54329 37.6856 7.85153 37.0279 7.65326L18.7298 2.13646ZM25.8328 13.3333C27.2135 13.3333 28.3328 12.214 28.3328 10.8333C28.3328 9.45254 27.2135 8.33325 25.8328 8.33325C24.4521 8.33325 23.3328 9.45254 23.3328 10.8333C23.3328 12.214 24.4521 13.3333 25.8328 13.3333Z" fill="#111827"/>
<path fill-rule="evenodd" clip-rule="evenodd" d="M2.9723 12.6532L11.3056 10.1407L12.0273 12.5343L4.88223 14.6885L10.8795 35.1063L21.3056 31.9629L22.0273 34.3565L10.3958 37.8633C10.0769 37.9595 9.73287 37.9244 9.43997 37.7658C9.14706 37.6073 8.92954 37.3384 8.83567 37.0188L2.13379 14.2023C1.94022 13.5432 2.31466 12.8515 2.9723 12.6532Z" fill="#111827"/>
</svg>
