<svg width="24" height="24" viewBox="0 0 24 24" fill="none" xmlns="http://www.w3.org/2000/svg">
<path fill-rule="evenodd" clip-rule="evenodd" d="M12.6512 1.6279C12.5177 1.39421 12.2691 1.25 12 1.25C11.7309 1.25 11.4824 1.39421 11.3488 1.6279L7.67261 8.06127L3.27854 6.30364C3.01704 6.19904 2.71898 6.24977 2.5068 6.43498C2.29462 6.62019 2.20408 6.90866 2.27239 7.1819L5.41442 18.75H18.5856L21.7276 7.1819C21.7959 6.90866 21.7054 6.62019 21.4932 6.43498C21.281 6.24977 20.983 6.19904 20.7215 6.30364L16.3274 8.06127L12.6512 1.6279ZM13 13H11V15H13V13Z" fill="#E2BA4E"/>
<path fill-rule="evenodd" clip-rule="evenodd" d="M18.5 22.75H5.49998V20.75H18.5V22.75Z" fill="#E2BA4E"/>
</svg>
