<svg width="50" height="50" viewBox="0 0 50 50" fill="none" xmlns="http://www.w3.org/2000/svg">
<path fill-rule="evenodd" clip-rule="evenodd" d="M2.60417 6.25C2.60417 5.38706 3.30373 4.6875 4.16667 4.6875H45.8333C46.6963 4.6875 47.3958 5.38706 47.3958 6.25V39.5833C47.3958 40.4463 46.6963 41.1458 45.8333 41.1458H34.375V29.1667C34.375 23.989 30.1777 19.7917 25 19.7917C19.8223 19.7917 15.625 23.989 15.625 29.1667V41.1458H4.16667C3.30373 41.1458 2.60417 40.4463 2.60417 39.5833V6.25ZM35.4167 10.9375H14.5833V14.0625H35.4167V10.9375Z" fill="white"/>
<path d="M25 35.4167C28.4518 35.4167 31.25 32.6185 31.25 29.1667C31.25 25.7149 28.4518 22.9167 25 22.9167C21.5482 22.9167 18.75 25.7149 18.75 29.1667C18.75 32.6185 21.5482 35.4167 25 35.4167Z" fill="white"/>
<path d="M25 37.5C27.4395 37.5 29.6486 36.5134 31.25 34.9175V45.3125L25 42.1875L18.75 45.3125V34.9175C20.3514 36.5134 22.5605 37.5 25 37.5Z" fill="white"/>
</svg>
