<svg width="40" height="40" viewBox="0 0 40 40" fill="none" xmlns="http://www.w3.org/2000/svg">
<path fill-rule="evenodd" clip-rule="evenodd" d="M9.11609 10.0506L6.61609 7.5506L8.38386 5.78284L10.8839 8.28284L9.11609 10.0506ZM33.3839 7.5506L30.8839 10.0506L29.1161 8.28284L31.6161 5.78284L33.3839 7.5506Z" fill="#111827"/>
<path fill-rule="evenodd" clip-rule="evenodd" d="M20 5.41675C11.0254 5.41675 3.75 12.6921 3.75 21.6667C3.75 30.6414 11.0254 37.9167 20 37.9167C28.9746 37.9167 36.25 30.6414 36.25 21.6667C36.25 12.6921 28.9746 5.41675 20 5.41675ZM21.25 21.9823V14.1667H18.75V23.0178L23.2828 27.5506L25.0506 25.7829L21.25 21.9823Z" fill="#111827"/>
<path fill-rule="evenodd" clip-rule="evenodd" d="M18.75 4.58337H15V2.08337H25V4.58337H21.25V5.83337H18.75V4.58337Z" fill="#111827"/>
</svg>
