<svg width="50" height="50" viewBox="0 0 50 50" fill="none" xmlns="http://www.w3.org/2000/svg">
<path fill-rule="evenodd" clip-rule="evenodd" d="M22.9167 38.0208H12.5V33.8541H22.9167V38.0208Z" fill="white"/>
<path d="M4.6875 43.2813V18.8542H8.75V41.2501H27.0833V45.3126H6.71875C5.59692 45.3126 4.6875 44.4032 4.6875 43.2813Z" fill="white"/>
<path d="M47.3234 17.2493C47.4673 17.7175 47.3833 18.2262 47.0965 18.6233C45.2799 21.1385 42.3323 24.4793 36.9855 24.4793C34.7361 24.4793 32.6582 23.7362 30.9904 22.484C29.3221 23.737 27.245 24.4793 24.9951 24.4793C22.7463 24.4793 20.669 23.7366 19.0014 22.485C17.3334 23.7374 15.2569 24.4793 13.0076 24.4793C7.66022 24.4793 4.71616 21.1379 2.9 18.6233C2.6131 18.2261 2.52916 17.7172 2.67326 17.2489L7.17931 2.60413L42.821 2.6043L47.3234 17.2493Z" fill="white"/>
<path fill-rule="evenodd" clip-rule="evenodd" d="M38.5417 25.9155C33.6797 25.9155 29.6875 29.7905 29.6875 34.6327C29.6875 37.3525 30.9914 39.5599 32.5288 41.3854C33.5377 42.5833 34.787 43.7632 35.9315 44.8441C36.4682 45.351 36.9818 45.836 37.4368 46.2911L38.5417 47.3958L39.6465 46.2911C40.114 45.8235 40.6485 45.3224 41.2078 44.7978C42.3355 43.7402 43.5646 42.5877 44.5511 41.4243C46.0961 39.6024 47.3958 37.3952 47.3958 34.6327C47.3958 29.7905 43.4036 25.9155 38.5417 25.9155ZM38.5277 37.8946C36.8095 37.8946 35.4167 36.4955 35.4167 34.7696C35.4167 33.0437 36.8095 31.6446 38.5277 31.6446H38.5556C40.2738 31.6446 41.6667 33.0437 41.6667 34.7696C41.6667 36.4955 40.2738 37.8946 38.5556 37.8946H38.5277Z" fill="white"/>
</svg>
