<svg width="50" height="50" viewBox="0 0 50 50" fill="none" xmlns="http://www.w3.org/2000/svg">
<path fill-rule="evenodd" clip-rule="evenodd" d="M32.47 2.60419L34.8492 12.1211L31.8175 12.879L30.03 5.72919L19.97 5.7292L18.1825 12.879L15.1508 12.1211L17.53 2.6042L32.47 2.60419Z" fill="white"/>
<path fill-rule="evenodd" clip-rule="evenodd" d="M32.47 47.3959L34.8492 37.879L31.8175 37.1211L30.03 44.2709L19.97 44.2709L18.1825 37.1211L15.1508 37.879L17.53 47.3959L32.47 47.3959Z" fill="white"/>
<path fill-rule="evenodd" clip-rule="evenodd" d="M25 8.85419C16.0829 8.85419 8.85419 16.0829 8.85419 25C8.85419 33.9171 16.0829 41.1459 25 41.1459C33.9171 41.1459 41.1459 33.9171 41.1459 25C41.1459 16.0829 33.9171 8.85419 25 8.85419ZM27.0834 18.75V24.1455L29.5957 26.6494L26.6544 29.6006L22.9167 25.8755V18.75H27.0834Z" fill="white"/>
</svg>
