<svg width="21" height="22" viewBox="0 0 21 22" fill="none" xmlns="http://www.w3.org/2000/svg">
<path fill-rule="evenodd" clip-rule="evenodd" d="M10.5 1.59373C5.30509 1.59373 1.09376 5.80506 1.09376 11C1.09376 12.6137 1.50067 14.1342 2.21783 15.4626L1.11607 19.5804C1.05549 19.8068 1.12025 20.0483 1.28598 20.214C1.4517 20.3797 1.69323 20.4445 1.91964 20.3839L6.03741 19.2822C7.36582 19.9993 8.88628 20.4062 10.5 20.4062C15.6949 20.4062 19.9063 16.1949 19.9063 11C19.9063 5.80506 15.6949 1.59373 10.5 1.59373ZM6.125 5.96875C5.95095 5.96875 5.78403 6.03789 5.66096 6.16096C5.53789 6.28403 5.46875 6.45095 5.46875 6.625C5.46875 9.4524 6.83258 11.9015 8.21562 13.2845C9.59867 14.6675 12.0477 16.0313 14.8751 16.0313C15.0492 16.0313 15.2161 15.9621 15.3391 15.839C15.4622 15.716 15.5314 15.549 15.5314 15.375L15.5314 12.8205C15.5314 12.4995 15.2992 12.2256 14.9825 12.173L11.5833 11.6093L10.079 13.1413C9.72401 12.8886 9.40975 12.6225 9.14369 12.3564C8.87764 12.0904 8.61147 11.7761 8.35877 11.4211L9.8842 9.92323L9.39976 6.53219C9.35358 6.20889 9.07669 5.96875 8.75011 5.96875L6.125 5.96875Z" fill="#43CD40"/>
</svg>
