<svg width="40" height="40" fill="none" xmlns="http://www.w3.org/2000/svg"><path fill-rule="evenodd" clip-rule="evenodd" d="M12.5 4.583c0-.92.746-1.666 1.667-1.666h11.666c.92 0 1.667.746 1.667 1.666v5.834h-3.333V6.25h-8.334v4.167H12.5V4.583z" fill="#111827"/><path fill-rule="evenodd" clip-rule="evenodd" d="M2.917 10c0-.69.56-1.25 1.25-1.25h31.666c.69 0 1.25.56 1.25 1.25v8.75H30v2.5h7.083v14.583c0 .69-.56 1.25-1.25 1.25H4.167c-.69 0-1.25-.56-1.25-1.25V21.25H10v-2.5H2.917V10zm13.976 8.066a4.916 4.916 0 011.857-.843v-1.39h2.5v1.391c1.314.301 2.475 1.076 3.024 2.243l-2.261 1.066c-.196-.415-.899-.95-2.013-.95-.676 0-1.24.208-1.607.483-.367.274-.476.559-.476.767 0 .209.11.493.476.768.367.275.93.482 1.607.482 1.165 0 2.267.353 3.107.983.84.63 1.476 1.595 1.476 2.767s-.636 2.138-1.476 2.768a4.916 4.916 0 01-1.857.843v1.39h-2.5v-1.392c-1.314-.3-2.475-1.076-3.024-2.242l2.261-1.066c.195.414.899.95 2.013.95.676 0 1.24-.208 1.607-.483.366-.275.476-.559.476-.768 0-.208-.11-.493-.476-.767-.367-.275-.93-.483-1.607-.483-1.165 0-2.267-.352-3.107-.982-.84-.63-1.476-1.596-1.476-2.768 0-1.172.636-2.137 1.476-2.767z" fill="#111827"/></svg>