<svg width="40" height="40" fill="none" xmlns="http://www.w3.org/2000/svg"><path fill-rule="evenodd" clip-rule="evenodd" d="M18.73 2.136a1.25 1.25 0 00-1.56.845l-6.702 22.817a1.25 1.25 0 00.838 1.549l18.298 5.516a1.25 1.25 0 001.56-.844l6.702-22.817a1.25 1.25 0 00-.838-1.549L18.73 2.136zm7.103 11.197a2.5 2.5 0 100-5 2.5 2.5 0 000 5z" fill="#111827"/><path fill-rule="evenodd" clip-rule="evenodd" d="M2.972 12.653l8.334-2.512.721 2.393-7.145 2.154 5.998 20.418 10.426-3.143.721 2.393-11.631 3.507a1.25 1.25 0 01-1.56-.844L2.134 14.202a1.25 1.25 0 01.838-1.549z" fill="#111827"/></svg>