<svg width="50" height="50" fill="none" xmlns="http://www.w3.org/2000/svg"><path fill-rule="evenodd" clip-rule="evenodd" d="M2.604 6.25c0-.863.7-1.563 1.563-1.563h41.666c.863 0 1.563.7 1.563 1.563v33.333c0 .863-.7 1.563-1.563 1.563H34.375v-11.98a9.375 9.375 0 10-18.75 0v11.98H4.167c-.863 0-1.563-.7-1.563-1.563V6.25zm32.813 4.688H14.583v3.124h20.834v-3.124z" fill="#fff"/><path d="M25 35.417a6.25 6.25 0 100-12.5 6.25 6.25 0 000 12.5z" fill="#fff"/><path d="M25 37.5c2.44 0 4.649-.987 6.25-2.583v10.395L25 42.188l-6.25 3.124V34.918A8.826 8.826 0 0025 37.5z" fill="#fff"/></svg>