<svg width="40" height="40" fill="none" xmlns="http://www.w3.org/2000/svg"><path fill-rule="evenodd" clip-rule="evenodd" d="M9.116 10.05l-2.5-2.5 1.768-1.767 2.5 2.5-1.768 1.768zm24.268-2.5l-2.5 2.5-1.768-1.767 2.5-2.5 1.768 1.768z" fill="#111827"/><path fill-rule="evenodd" clip-rule="evenodd" d="M20 5.417c-8.975 0-16.25 7.275-16.25 16.25 0 8.974 7.275 16.25 16.25 16.25s16.25-7.276 16.25-16.25c0-8.975-7.275-16.25-16.25-16.25zm1.25 16.565v-7.815h-2.5v8.85l4.533 4.534 1.768-1.768-3.801-3.8z" fill="#111827"/><path fill-rule="evenodd" clip-rule="evenodd" d="M18.75 4.583H15v-2.5h10v2.5h-3.75v1.25h-2.5v-1.25z" fill="#111827"/></svg>