<svg width="50" height="50" fill="none" xmlns="http://www.w3.org/2000/svg"><path fill-rule="evenodd" clip-rule="evenodd" d="M22.917 38.02H12.5v-4.166h10.417v4.167z" fill="#fff"/><path d="M4.688 43.281V18.854H8.75V41.25h18.333v4.063H6.72a2.031 2.031 0 01-2.032-2.032z" fill="#fff"/><path d="M47.323 17.25c.144.468.06.976-.227 1.373-1.816 2.515-4.764 5.856-10.11 5.856a9.955 9.955 0 01-5.996-1.995 9.95 9.95 0 01-5.995 1.995 9.955 9.955 0 01-5.994-1.994 9.95 9.95 0 01-5.993 1.994c-5.348 0-8.292-3.341-10.108-5.856a1.563 1.563 0 01-.227-1.374L7.18 2.604h35.642l4.502 14.645z" fill="#fff"/><path fill-rule="evenodd" clip-rule="evenodd" d="M38.542 25.916c-4.862 0-8.855 3.875-8.855 8.717 0 2.72 1.304 4.927 2.842 6.752 1.009 1.198 2.258 2.378 3.402 3.46.537.506 1.05.991 1.506 1.446l1.105 1.105 1.105-1.105c.467-.467 1.002-.969 1.56-1.493 1.129-1.058 2.358-2.21 3.344-3.374 1.545-1.822 2.845-4.029 2.845-6.791 0-4.843-3.992-8.718-8.854-8.718zm-.014 11.979a3.118 3.118 0 01-3.111-3.125 3.118 3.118 0 013.11-3.125h.029a3.117 3.117 0 013.11 3.125 3.118 3.118 0 01-3.11 3.125h-.028z" fill="#fff"/></svg>