<svg width="50" height="50" fill="none" xmlns="http://www.w3.org/2000/svg"><path fill-rule="evenodd" clip-rule="evenodd" d="M32.47 2.604l2.38 9.517-3.033.758-1.787-7.15H19.97l-1.787 7.15-3.032-.758 2.379-9.517h14.94zm0 44.792l2.38-9.517-3.033-.758-1.787 7.15H19.97l-1.787-7.15-3.032.758 2.379 9.517h14.94z" fill="#fff"/><path fill-rule="evenodd" clip-rule="evenodd" d="M25 8.854C16.083 8.854 8.854 16.083 8.854 25c0 8.917 7.229 16.146 16.146 16.146 8.917 0 16.146-7.229 16.146-16.146 0-8.917-7.229-16.146-16.146-16.146zm2.083 9.896v5.395l2.513 2.504-2.942 2.952-3.737-3.726V18.75h4.166z" fill="#fff"/></svg>