<svg width="21" height="22" fill="none" xmlns="http://www.w3.org/2000/svg"><path fill-rule="evenodd" clip-rule="evenodd" d="M10.5 1.594a9.406 9.406 0 00-8.282 13.869L1.116 19.58a.656.656 0 00.804.804l4.117-1.102A9.406 9.406 0 1010.5 1.594zM6.125 5.969a.656.656 0 00-.656.656c0 2.827 1.364 5.277 2.747 6.66 1.383 1.383 3.832 2.746 6.66 2.746a.656.656 0 00.655-.656V12.82a.656.656 0 00-.549-.647l-3.399-.564-1.504 1.532a7.373 7.373 0 01-.935-.785 7.372 7.372 0 01-.785-.935l1.525-1.498-.484-3.39a.656.656 0 00-.65-.564H6.125z" fill="#43CD40"/></svg>